<?xml version="1.0" encoding="UTF-8"?>
<svg xmlns="http://www.w3.org/2000/svg" xmlns:xlink="http://www.w3.org/1999/xlink" width="24pt" height="24pt" viewBox="0 0 24 24" version="1.1">
<g id="surface16227448">
<path style=" stroke:none;fill-rule:nonzero;fill:rgb(100%,100%,100%);fill-opacity:1;" d="M 21 5 C 21 5 18 4 12 4 C 6 4 3 5 3 5 C 3 5 2 8 2 12 C 2 16 3 19 3 19 C 3 19 6 20 12 20 C 18 20 21 19 21 19 C 21 19 22 16 22 12 C 22 8 21 5 21 5 Z M 10 15.464844 L 10 8.535156 L 16 12 Z M 10 15.464844 "/>
</g>
</svg>
